<?xml version="1.0" encoding="utf-8" standalone="no"?>
<!DOCTYPE svg PUBLIC "-//W3C//DTD SVG 1.1//EN"
  "http://www.w3.org/Graphics/SVG/1.1/DTD/svg11.dtd">
<svg xmlns:xlink="http://www.w3.org/1999/xlink" width="229.8225pt" height="230.76pt" viewBox="0 0 229.8225 230.76" xmlns="http://www.w3.org/2000/svg" version="1.1">
 <metadata>
  <rdf:RDF xmlns:dc="http://purl.org/dc/elements/1.1/" xmlns:cc="http://creativecommons.org/ns#" xmlns:rdf="http://www.w3.org/1999/02/22-rdf-syntax-ns#">
   <cc:Work>
    <dc:type rdf:resource="http://purl.org/dc/dcmitype/StillImage"/>
    <dc:date>2023-02-12T14:10:58.912522</dc:date>
    <dc:format>image/svg+xml</dc:format>
    <dc:creator>
     <cc:Agent>
      <dc:title>Matplotlib v3.6.2, https://matplotlib.org/</dc:title>
     </cc:Agent>
    </dc:creator>
   </cc:Work>
  </rdf:RDF>
 </metadata>
 <defs>
  <style type="text/css">*{stroke-linejoin: round; stroke-linecap: butt}</style>
 </defs>
 <g id="figure_1">
  <g id="patch_1">
   <path d="M 0 230.76
L 229.8225 230.76
L 229.8225 0
L 0 0
z
" style="fill: #ffffff"/>
  </g>
  <g id="axes_1">
   <g id="patch_2">
    <path d="M -7.2 237.96
L 237.0225 237.96
L 237.0225 -7.2
L -7.2 -7.2
z
" style="fill: #ffffff"/>
   </g>
   <g id="matplotlib.axis_1"/>
   <g id="matplotlib.axis_2"/>
   <g id="PolyCollection_1">
    <path d="M -7.2 212.98141
L -7.2 237.96
L -5.972751 237.96
L -4.745503 237.96
L -3.518254 237.96
L -2.291005 237.96
L -1.063756 237.96
L 0.163492 237.96
L 1.390741 237.96
L 2.61799 237.96
L 3.845239 237.96
L 5.072487 237.96
L 6.299736 237.96
L 7.526985 237.96
L 8.754234 237.96
L 9.981482 237.96
L 11.208731 237.96
L 12.43598 237.96
L 13.663229 237.96
L 14.890477 237.96
L 16.117726 237.96
L 17.344975 237.96
L 18.572224 237.96
L 19.799472 237.96
L 21.026721 237.96
L 22.25397 237.96
L 23.481219 237.96
L 24.708467 237.96
L 25.935716 237.96
L 27.162965 237.96
L 28.390214 237.96
L 29.617462 237.96
L 30.844711 237.96
L 32.07196 237.96
L 33.299209 237.96
L 34.526457 237.96
L 35.753706 237.96
L 36.980955 237.96
L 38.208204 237.96
L 39.435452 237.96
L 40.662701 237.96
L 41.88995 237.96
L 43.117198 237.96
L 44.344447 237.96
L 45.571696 237.96
L 46.798945 237.96
L 48.026193 237.96
L 49.253442 237.96
L 50.480691 237.96
L 51.70794 237.96
L 52.935188 237.96
L 54.162437 237.96
L 55.389686 237.96
L 56.616935 237.96
L 57.844183 237.96
L 59.071432 237.96
L 60.298681 237.96
L 61.52593 237.96
L 62.753178 237.96
L 63.980427 237.96
L 65.207676 237.96
L 66.434925 237.96
L 67.662173 237.96
L 68.889422 237.96
L 70.116671 237.96
L 71.34392 237.96
L 72.571168 237.96
L 73.798417 237.96
L 75.025666 237.96
L 76.252915 237.96
L 77.480163 237.96
L 78.707412 237.96
L 79.934661 237.96
L 81.16191 237.96
L 82.389158 237.96
L 83.616407 237.96
L 84.843656 237.96
L 86.070905 237.96
L 87.298153 237.96
L 88.525402 237.96
L 89.752651 237.96
L 90.979899 237.96
L 92.207148 237.96
L 93.434397 237.96
L 94.661646 237.96
L 95.888894 237.96
L 97.116143 237.96
L 98.343392 237.96
L 99.570641 237.96
L 100.797889 237.96
L 102.025138 237.96
L 103.252387 237.96
L 104.479636 237.96
L 105.706884 237.96
L 106.934133 237.96
L 108.161382 237.96
L 109.388631 237.96
L 110.615879 237.96
L 111.843128 237.96
L 113.070377 237.96
L 114.297626 237.96
L 115.524874 237.96
L 116.752123 237.96
L 117.979372 237.96
L 119.206621 237.96
L 120.433869 237.96
L 121.661118 237.96
L 122.888367 237.96
L 124.115616 237.96
L 125.342864 237.96
L 126.570113 237.96
L 127.797362 237.96
L 129.024611 237.96
L 130.251859 237.96
L 131.479108 237.96
L 132.706357 237.96
L 133.933606 237.96
L 135.160854 237.96
L 136.388103 237.96
L 137.615352 237.96
L 138.842601 237.96
L 140.069849 237.96
L 141.297098 237.96
L 142.524347 237.96
L 143.751595 237.96
L 144.978844 237.96
L 146.206093 237.96
L 147.433342 237.96
L 148.66059 237.96
L 149.887839 237.96
L 151.115088 237.96
L 152.342337 237.96
L 153.569585 237.96
L 154.796834 237.96
L 156.024083 237.96
L 157.251332 237.96
L 158.47858 237.96
L 159.705829 237.96
L 160.933078 237.96
L 162.160327 237.96
L 163.387575 237.96
L 164.614824 237.96
L 165.842073 237.96
L 167.069322 237.96
L 168.29657 237.96
L 169.523819 237.96
L 170.751068 237.96
L 171.978317 237.96
L 173.205565 237.96
L 174.432814 237.96
L 175.660063 237.96
L 176.887312 237.96
L 178.11456 237.96
L 179.341809 237.96
L 180.569058 237.96
L 181.796307 237.96
L 183.023555 237.96
L 184.250804 237.96
L 185.478053 237.96
L 186.705302 237.96
L 187.93255 237.96
L 189.159799 237.96
L 190.387048 237.96
L 191.614296 237.96
L 192.841545 237.96
L 194.068794 237.96
L 195.296043 237.96
L 196.523291 237.96
L 197.75054 237.96
L 198.977789 237.96
L 200.205038 237.96
L 201.432286 237.96
L 202.659535 237.96
L 203.886784 237.96
L 205.114033 237.96
L 206.341281 237.96
L 207.56853 237.96
L 208.795779 237.96
L 210.023028 237.96
L 211.250276 237.96
L 212.477525 237.96
L 213.704774 237.96
L 214.932023 237.96
L 216.159271 237.96
L 217.38652 237.96
L 218.613769 237.96
L 219.841018 237.96
L 221.068266 237.96
L 222.295515 237.96
L 223.522764 237.96
L 224.750013 237.96
L 225.977261 237.96
L 227.20451 237.96
L 228.431759 237.96
L 229.659008 237.96
L 230.886256 237.96
L 232.113505 237.96
L 233.340754 237.96
L 234.568003 237.96
L 235.795251 237.96
L 237.0225 237.96
L 237.0225 -7.2
L 237.0225 -7.2
L 235.795251 -7.2
L 234.568003 -7.2
L 233.340754 -7.2
L 232.113505 -7.2
L 230.886256 -7.2
L 229.659008 -7.2
L 228.431759 -7.2
L 227.20451 -7.2
L 225.977261 -7.2
L 224.750013 -7.2
L 223.522764 -7.2
L 222.295515 -7.2
L 221.068266 -7.2
L 219.841018 -7.2
L 218.613769 -7.2
L 217.38652 -7.2
L 216.159271 -7.2
L 214.932023 -7.2
L 213.704774 -7.2
L 212.477525 -7.2
L 211.250276 -7.2
L 210.023028 -7.2
L 208.795779 -7.2
L 207.56853 -7.2
L 206.341281 -7.2
L 205.114033 -7.199999
L 203.886784 -7.199992
L 202.659535 -7.19994
L 201.432286 -7.199568
L 200.205038 -7.197165
L 198.977789 -7.183271
L 197.75054 -7.113606
L 196.523291 -6.820515
L 195.296043 -5.806999
L 194.068794 -2.913905
L 192.841545 4.034532
L 191.614296 18.204938
L 190.387048 42.392564
L 189.159799 75.977091
L 187.93255 113.276249
L 186.705302 146.963225
L 185.478053 172.912377
L 184.250804 190.946203
L 183.023555 202.745079
L 181.796307 210.119419
L 180.569058 214.348496
L 179.341809 216.029733
L 178.11456 214.905992
L 176.887312 209.266451
L 175.660063 194.792785
L 174.432814 166.028275
L 173.205565 131.136527
L 171.978317 115.331611
L 170.751068 119.713891
L 169.523819 129.522439
L 168.29657 137.639882
L 167.069322 142.649427
L 165.842073 145.0665
L 164.614824 146.447349
L 163.387575 149.312263
L 162.160327 155.879815
L 160.933078 165.43803
L 159.705829 174.370203
L 158.47858 179.396166
L 157.251332 178.872815
L 156.024083 171.730481
L 154.796834 156.768032
L 153.569585 134.11703
L 152.342337 110.128851
L 151.115088 99.700162
L 149.887839 110.967543
L 148.66059 132.471715
L 147.433342 150.008035
L 146.206093 158.668706
L 144.978844 159.277386
L 143.751595 154.989598
L 142.524347 151.169372
L 141.297098 153.394733
L 140.069849 162.15973
L 138.842601 173.139303
L 137.615352 182.594157
L 136.388103 189.17062
L 135.160854 192.778089
L 133.933606 193.5912
L 132.706357 191.664903
L 131.479108 186.912054
L 130.251859 179.460147
L 129.024611 170.797796
L 127.797362 165.487436
L 126.570113 168.978329
L 125.342864 179.547566
L 124.115616 190.006295
L 122.888367 196.645439
L 121.661118 199.606641
L 120.433869 200.222084
L 119.206621 199.992795
L 117.979372 200.201522
L 116.752123 201.454324
L 115.524874 203.587348
L 114.297626 206.07803
L 113.070377 208.443929
L 111.843128 210.400309
L 110.615879 211.893328
L 109.388631 213.087573
L 108.161382 214.289919
L 106.934133 215.771915
L 105.706884 217.567663
L 104.479636 219.448845
L 103.252387 221.103646
L 102.025138 222.307817
L 100.797889 222.973522
L 99.570641 223.130691
L 98.343392 222.90155
L 97.116143 222.481701
L 95.888894 222.117402
L 94.661646 222.055635
L 93.434397 222.447359
L 92.207148 223.248694
L 90.979899 224.226352
L 89.752651 225.079894
L 88.525402 225.556092
L 87.298153 225.469558
L 86.070905 224.657925
L 84.843656 222.935493
L 83.616407 220.114955
L 82.389158 216.248673
L 81.16191 212.353687
L 79.934661 211.093443
L 78.707412 214.455059
L 77.480163 220.153697
L 76.252915 224.859726
L 75.025666 227.630315
L 73.798417 228.861532
L 72.571168 229.112811
L 71.34392 228.878191
L 70.116671 228.623022
L 68.889422 228.679998
L 67.662173 229.072182
L 66.434925 229.574112
L 65.207676 229.93489
L 63.980427 229.985024
L 62.753178 229.616981
L 61.52593 228.754143
L 60.298681 227.391617
L 59.071432 225.781857
L 57.844183 224.682521
L 56.616935 225.007532
L 55.389686 226.68343
L 54.162437 228.680432
L 52.935188 230.22159
L 51.70794 231.105843
L 50.480691 231.388607
L 49.253442 231.171514
L 48.026193 230.5762
L 46.798945 229.795584
L 45.571696 229.097499
L 44.344447 228.685996
L 43.117198 228.546588
L 41.88995 228.485662
L 40.662701 228.283138
L 39.435452 227.779862
L 38.208204 226.895137
L 36.980955 225.639306
L 35.753706 224.137025
L 34.526457 222.630122
L 33.299209 221.462442
L 32.07196 221.076877
L 30.844711 221.857253
L 29.617462 223.682571
L 28.390214 225.837546
L 27.162965 227.618308
L 25.935716 228.732849
L 24.708467 229.197881
L 23.481219 229.194805
L 22.25397 229.083545
L 21.026721 229.361309
L 19.799472 230.245298
L 18.572224 231.399537
L 17.344975 232.40079
L 16.117726 233.113892
L 14.890477 233.623087
L 13.663229 234.086647
L 12.43598 234.617444
L 11.208731 235.20263
L 9.981482 235.748734
L 8.754234 236.184041
L 7.526985 236.488764
L 6.299736 236.67135
L 5.072487 236.74465
L 3.845239 236.713293
L 2.61799 236.567008
L 1.390741 236.275049
L 0.163492 235.77811
L -1.063756 234.973318
L -2.291005 233.684504
L -3.518254 231.60484
L -4.745503 228.193636
L -5.972751 222.508359
L -7.2 212.98141
z
" clip-path="url(#p8f2e1a5540)" style="fill: #1d2545; fill-opacity: 0.75; stroke: #ffffff"/>
   </g>
   <g id="PolyCollection_2">
    <path d="M -7.2 160.101357
L -7.2 212.98141
L -5.972751 222.508359
L -4.745503 228.193636
L -3.518254 231.60484
L -2.291005 233.684504
L -1.063756 234.973318
L 0.163492 235.77811
L 1.390741 236.275049
L 2.61799 236.567008
L 3.845239 236.713293
L 5.072487 236.74465
L 6.299736 236.67135
L 7.526985 236.488764
L 8.754234 236.184041
L 9.981482 235.748734
L 11.208731 235.20263
L 12.43598 234.617444
L 13.663229 234.086647
L 14.890477 233.623087
L 16.117726 233.113892
L 17.344975 232.40079
L 18.572224 231.399537
L 19.799472 230.245298
L 21.026721 229.361309
L 22.25397 229.083545
L 23.481219 229.194805
L 24.708467 229.197881
L 25.935716 228.732849
L 27.162965 227.618308
L 28.390214 225.837546
L 29.617462 223.682571
L 30.844711 221.857253
L 32.07196 221.076877
L 33.299209 221.462442
L 34.526457 222.630122
L 35.753706 224.137025
L 36.980955 225.639306
L 38.208204 226.895137
L 39.435452 227.779862
L 40.662701 228.283138
L 41.88995 228.485662
L 43.117198 228.546588
L 44.344447 228.685996
L 45.571696 229.097499
L 46.798945 229.795584
L 48.026193 230.5762
L 49.253442 231.171514
L 50.480691 231.388607
L 51.70794 231.105843
L 52.935188 230.22159
L 54.162437 228.680432
L 55.389686 226.68343
L 56.616935 225.007532
L 57.844183 224.682521
L 59.071432 225.781857
L 60.298681 227.391617
L 61.52593 228.754143
L 62.753178 229.616981
L 63.980427 229.985024
L 65.207676 229.93489
L 66.434925 229.574112
L 67.662173 229.072182
L 68.889422 228.679998
L 70.116671 228.623022
L 71.34392 228.878191
L 72.571168 229.112811
L 73.798417 228.861532
L 75.025666 227.630315
L 76.252915 224.859726
L 77.480163 220.153697
L 78.707412 214.455059
L 79.934661 211.093443
L 81.16191 212.353687
L 82.389158 216.248673
L 83.616407 220.114955
L 84.843656 222.935493
L 86.070905 224.657925
L 87.298153 225.469558
L 88.525402 225.556092
L 89.752651 225.079894
L 90.979899 224.226352
L 92.207148 223.248694
L 93.434397 222.447359
L 94.661646 222.055635
L 95.888894 222.117402
L 97.116143 222.481701
L 98.343392 222.90155
L 99.570641 223.130691
L 100.797889 222.973522
L 102.025138 222.307817
L 103.252387 221.103646
L 104.479636 219.448845
L 105.706884 217.567663
L 106.934133 215.771915
L 108.161382 214.289919
L 109.388631 213.087573
L 110.615879 211.893328
L 111.843128 210.400309
L 113.070377 208.443929
L 114.297626 206.07803
L 115.524874 203.587348
L 116.752123 201.454324
L 117.979372 200.201522
L 119.206621 199.992795
L 120.433869 200.222084
L 121.661118 199.606641
L 122.888367 196.645439
L 124.115616 190.006295
L 125.342864 179.547566
L 126.570113 168.978329
L 127.797362 165.487436
L 129.024611 170.797796
L 130.251859 179.460147
L 131.479108 186.912054
L 132.706357 191.664903
L 133.933606 193.5912
L 135.160854 192.778089
L 136.388103 189.17062
L 137.615352 182.594157
L 138.842601 173.139303
L 140.069849 162.15973
L 141.297098 153.394733
L 142.524347 151.169372
L 143.751595 154.989598
L 144.978844 159.277386
L 146.206093 158.668706
L 147.433342 150.008035
L 148.66059 132.471715
L 149.887839 110.967543
L 151.115088 99.700162
L 152.342337 110.128851
L 153.569585 134.11703
L 154.796834 156.768032
L 156.024083 171.730481
L 157.251332 178.872815
L 158.47858 179.396166
L 159.705829 174.370203
L 160.933078 165.43803
L 162.160327 155.879815
L 163.387575 149.312263
L 164.614824 146.447349
L 165.842073 145.0665
L 167.069322 142.649427
L 168.29657 137.639882
L 169.523819 129.522439
L 170.751068 119.713891
L 171.978317 115.331611
L 173.205565 131.136527
L 174.432814 166.028275
L 175.660063 194.792785
L 176.887312 209.266451
L 178.11456 214.905992
L 179.341809 216.029733
L 180.569058 214.348496
L 181.796307 210.119419
L 183.023555 202.745079
L 184.250804 190.946203
L 185.478053 172.912377
L 186.705302 146.963225
L 187.93255 113.276249
L 189.159799 75.977091
L 190.387048 42.392564
L 191.614296 18.204938
L 192.841545 4.034532
L 194.068794 -2.913905
L 195.296043 -5.806999
L 196.523291 -6.820515
L 197.75054 -7.113606
L 198.977789 -7.183271
L 200.205038 -7.197165
L 201.432286 -7.199568
L 202.659535 -7.19994
L 203.886784 -7.199992
L 205.114033 -7.199999
L 206.341281 -7.2
L 207.56853 -7.2
L 208.795779 -7.2
L 210.023028 -7.2
L 211.250276 -7.2
L 212.477525 -7.2
L 213.704774 -7.2
L 214.932023 -7.2
L 216.159271 -7.2
L 217.38652 -7.2
L 218.613769 -7.2
L 219.841018 -7.2
L 221.068266 -7.2
L 222.295515 -7.2
L 223.522764 -7.2
L 224.750013 -7.2
L 225.977261 -7.2
L 227.20451 -7.2
L 228.431759 -7.2
L 229.659008 -7.2
L 230.886256 -7.2
L 232.113505 -7.2
L 233.340754 -7.2
L 234.568003 -7.2
L 235.795251 -7.2
L 237.0225 -7.2
L 237.0225 -7.2
L 237.0225 -7.2
L 235.795251 -7.2
L 234.568003 -7.2
L 233.340754 -7.2
L 232.113505 -7.2
L 230.886256 -7.2
L 229.659008 -7.2
L 228.431759 -7.2
L 227.20451 -7.2
L 225.977261 -7.2
L 224.750013 -7.2
L 223.522764 -7.2
L 222.295515 -7.2
L 221.068266 -7.2
L 219.841018 -7.2
L 218.613769 -7.2
L 217.38652 -7.2
L 216.159271 -7.2
L 214.932023 -7.2
L 213.704774 -7.2
L 212.477525 -7.2
L 211.250276 -7.2
L 210.023028 -7.2
L 208.795779 -7.2
L 207.56853 -7.2
L 206.341281 -7.2
L 205.114033 -7.199999
L 203.886784 -7.199992
L 202.659535 -7.19994
L 201.432286 -7.199568
L 200.205038 -7.197165
L 198.977789 -7.183271
L 197.75054 -7.113606
L 196.523291 -6.820515
L 195.296043 -5.806999
L 194.068794 -2.913905
L 192.841545 4.034532
L 191.614296 18.204938
L 190.387048 42.392564
L 189.159799 75.977091
L 187.93255 113.276249
L 186.705302 146.963225
L 185.478053 172.912377
L 184.250804 190.946203
L 183.023555 202.745079
L 181.796307 210.119419
L 180.569058 214.348496
L 179.341809 216.029733
L 178.11456 214.905992
L 176.887312 209.266451
L 175.660063 194.792785
L 174.432814 166.028275
L 173.205565 131.136527
L 171.978317 115.331611
L 170.751068 119.713891
L 169.523819 129.522439
L 168.29657 137.639882
L 167.069322 142.649427
L 165.842073 145.0665
L 164.614824 146.447349
L 163.387575 149.312263
L 162.160327 155.879815
L 160.933078 165.43803
L 159.705829 174.370203
L 158.47858 179.396164
L 157.251332 178.872802
L 156.024083 171.730398
L 154.796834 156.767485
L 153.569585 134.113626
L 152.342337 110.11019
L 151.115088 99.618308
L 149.887839 110.693484
L 148.66059 131.740626
L 147.433342 148.318055
L 146.206093 155.055333
L 144.978844 151.939517
L 143.751595 141.027132
L 142.524347 127.37209
L 141.297098 118.631862
L 140.069849 118.633251
L 138.842601 124.327265
L 137.615352 131.042333
L 136.388103 136.077955
L 135.160854 138.391519
L 133.933606 137.627592
L 132.706357 133.646021
L 131.479108 126.501953
L 130.251859 116.944643
L 129.024611 107.828719
L 127.797362 105.608498
L 126.570113 115.941559
L 125.342864 133.817302
L 124.115616 148.942277
L 122.888367 157.29206
L 121.661118 160.020628
L 120.433869 159.798596
L 119.206621 159.585839
L 117.979372 161.705169
L 116.752123 166.715371
L 115.524874 173.503734
L 114.297626 180.533686
L 113.070377 186.737741
L 111.843128 191.655944
L 110.615879 195.285338
L 109.388631 197.917559
L 108.161382 199.978961
L 106.934133 201.830408
L 105.706884 203.597001
L 104.479636 205.189337
L 103.252387 206.475548
L 102.025138 207.382953
L 100.797889 207.88174
L 99.570641 207.953324
L 98.343392 207.583149
L 97.116143 206.770283
L 95.888894 205.574656
L 94.661646 204.194561
L 93.434397 202.964419
L 92.207148 202.17562
L 90.979899 201.848423
L 89.752651 201.693394
L 88.525402 201.265879
L 87.298153 200.124142
L 86.070905 197.895545
L 84.843656 194.305469
L 83.616407 189.301928
L 82.389158 183.495841
L 81.16191 179.090662
L 79.934661 180.002136
L 78.707412 187.545501
L 77.480163 196.991504
L 76.252915 203.936465
L 75.025666 207.808959
L 73.798417 209.424988
L 72.571168 209.504915
L 71.34392 208.633588
L 70.116671 207.473568
L 68.889422 206.653718
L 67.662173 206.386974
L 66.434925 206.39851
L 65.207676 206.238465
L 63.980427 205.528779
L 62.753178 204.027673
L 61.52593 201.679999
L 60.298681 198.819238
L 59.071432 196.575306
L 57.844183 196.938782
L 56.616935 201.052758
L 55.389686 207.114832
L 54.162437 212.336405
L 52.935188 215.660953
L 51.70794 217.310979
L 50.480691 217.668169
L 49.253442 216.926887
L 48.026193 215.183011
L 46.798945 212.642525
L 45.571696 209.759002
L 44.344447 207.064375
L 43.117198 204.780238
L 41.88995 202.691378
L 40.662701 200.371035
L 39.435452 197.442503
L 38.208204 193.75552
L 36.980955 189.527456
L 35.753706 185.403776
L 34.526457 182.299351
L 33.299209 181.109146
L 32.07196 182.551797
L 30.844711 186.833326
L 29.617462 192.930362
L 28.390214 198.883204
L 27.162965 203.240553
L 25.935716 205.607057
L 24.708467 206.207819
L 23.481219 205.621136
L 22.25397 204.93154
L 21.026721 205.565776
L 19.799472 207.960398
L 18.572224 210.868477
L 17.344975 212.929128
L 16.117726 213.775948
L 14.890477 213.822879
L 13.663229 213.889582
L 12.43598 214.734781
L 11.208731 216.46784
L 9.981482 218.566495
L 8.754234 220.457577
L 7.526985 221.820496
L 6.299736 222.523944
L 5.072487 222.508555
L 3.845239 221.723121
L 2.61799 220.101718
L 1.390741 217.566203
L 0.163492 214.040896
L -1.063756 209.453845
L -2.291005 203.693809
L -3.518254 196.518281
L -4.745503 187.447051
L -5.972751 175.682894
L -7.2 160.101357
z
" clip-path="url(#p8f2e1a5540)" style="fill: #33507b; fill-opacity: 0.75; stroke: #ffffff"/>
   </g>
   <g id="PolyCollection_3">
    <path d="M -7.2 66.947891
L -7.2 160.101357
L -5.972751 175.682894
L -4.745503 187.447051
L -3.518254 196.518281
L -2.291005 203.693809
L -1.063756 209.453845
L 0.163492 214.040896
L 1.390741 217.566203
L 2.61799 220.101718
L 3.845239 221.723121
L 5.072487 222.508555
L 6.299736 222.523944
L 7.526985 221.820496
L 8.754234 220.457577
L 9.981482 218.566495
L 11.208731 216.46784
L 12.43598 214.734781
L 13.663229 213.889582
L 14.890477 213.822879
L 16.117726 213.775948
L 17.344975 212.929128
L 18.572224 210.868477
L 19.799472 207.960398
L 21.026721 205.565776
L 22.25397 204.93154
L 23.481219 205.621136
L 24.708467 206.207819
L 25.935716 205.607057
L 27.162965 203.240553
L 28.390214 198.883204
L 29.617462 192.930362
L 30.844711 186.833326
L 32.07196 182.551797
L 33.299209 181.109146
L 34.526457 182.299351
L 35.753706 185.403776
L 36.980955 189.527456
L 38.208204 193.75552
L 39.435452 197.442503
L 40.662701 200.371035
L 41.88995 202.691378
L 43.117198 204.780238
L 44.344447 207.064375
L 45.571696 209.759002
L 46.798945 212.642525
L 48.026193 215.183011
L 49.253442 216.926887
L 50.480691 217.668169
L 51.70794 217.310979
L 52.935188 215.660953
L 54.162437 212.336405
L 55.389686 207.114832
L 56.616935 201.052758
L 57.844183 196.938782
L 59.071432 196.575306
L 60.298681 198.819238
L 61.52593 201.679999
L 62.753178 204.027673
L 63.980427 205.528779
L 65.207676 206.238465
L 66.434925 206.39851
L 67.662173 206.386974
L 68.889422 206.653718
L 70.116671 207.473568
L 71.34392 208.633588
L 72.571168 209.504915
L 73.798417 209.424988
L 75.025666 207.808959
L 76.252915 203.936465
L 77.480163 196.991504
L 78.707412 187.545501
L 79.934661 180.002136
L 81.16191 179.090662
L 82.389158 183.495841
L 83.616407 189.301928
L 84.843656 194.305469
L 86.070905 197.895545
L 87.298153 200.124142
L 88.525402 201.265879
L 89.752651 201.693394
L 90.979899 201.848423
L 92.207148 202.17562
L 93.434397 202.964419
L 94.661646 204.194561
L 95.888894 205.574656
L 97.116143 206.770283
L 98.343392 207.583149
L 99.570641 207.953324
L 100.797889 207.88174
L 102.025138 207.382953
L 103.252387 206.475548
L 104.479636 205.189337
L 105.706884 203.597001
L 106.934133 201.830408
L 108.161382 199.978961
L 109.388631 197.917559
L 110.615879 195.285338
L 111.843128 191.655944
L 113.070377 186.737741
L 114.297626 180.533686
L 115.524874 173.503734
L 116.752123 166.715371
L 117.979372 161.705169
L 119.206621 159.585839
L 120.433869 159.798596
L 121.661118 160.020628
L 122.888367 157.29206
L 124.115616 148.942277
L 125.342864 133.817302
L 126.570113 115.941559
L 127.797362 105.608498
L 129.024611 107.828719
L 130.251859 116.944643
L 131.479108 126.501953
L 132.706357 133.646021
L 133.933606 137.627592
L 135.160854 138.391519
L 136.388103 136.077955
L 137.615352 131.042333
L 138.842601 124.327265
L 140.069849 118.633251
L 141.297098 118.631862
L 142.524347 127.37209
L 143.751595 141.027132
L 144.978844 151.939517
L 146.206093 155.055333
L 147.433342 148.318055
L 148.66059 131.740626
L 149.887839 110.693484
L 151.115088 99.618308
L 152.342337 110.11019
L 153.569585 134.113626
L 154.796834 156.767485
L 156.024083 171.730398
L 157.251332 178.872802
L 158.47858 179.396164
L 159.705829 174.370203
L 160.933078 165.43803
L 162.160327 155.879815
L 163.387575 149.312263
L 164.614824 146.447349
L 165.842073 145.0665
L 167.069322 142.649427
L 168.29657 137.639882
L 169.523819 129.522439
L 170.751068 119.713891
L 171.978317 115.331611
L 173.205565 131.136527
L 174.432814 166.028275
L 175.660063 194.792785
L 176.887312 209.266451
L 178.11456 214.905992
L 179.341809 216.029733
L 180.569058 214.348496
L 181.796307 210.119419
L 183.023555 202.745079
L 184.250804 190.946203
L 185.478053 172.912377
L 186.705302 146.963225
L 187.93255 113.276249
L 189.159799 75.977091
L 190.387048 42.392564
L 191.614296 18.204938
L 192.841545 4.034532
L 194.068794 -2.913905
L 195.296043 -5.806999
L 196.523291 -6.820515
L 197.75054 -7.113606
L 198.977789 -7.183271
L 200.205038 -7.197165
L 201.432286 -7.199568
L 202.659535 -7.19994
L 203.886784 -7.199992
L 205.114033 -7.199999
L 206.341281 -7.2
L 207.56853 -7.2
L 208.795779 -7.2
L 210.023028 -7.2
L 211.250276 -7.2
L 212.477525 -7.2
L 213.704774 -7.2
L 214.932023 -7.2
L 216.159271 -7.2
L 217.38652 -7.2
L 218.613769 -7.2
L 219.841018 -7.2
L 221.068266 -7.2
L 222.295515 -7.2
L 223.522764 -7.2
L 224.750013 -7.2
L 225.977261 -7.2
L 227.20451 -7.2
L 228.431759 -7.2
L 229.659008 -7.2
L 230.886256 -7.2
L 232.113505 -7.2
L 233.340754 -7.2
L 234.568003 -7.2
L 235.795251 -7.2
L 237.0225 -7.2
L 237.0225 -7.2
L 237.0225 -7.2
L 235.795251 -7.2
L 234.568003 -7.2
L 233.340754 -7.2
L 232.113505 -7.2
L 230.886256 -7.2
L 229.659008 -7.2
L 228.431759 -7.2
L 227.20451 -7.2
L 225.977261 -7.2
L 224.750013 -7.2
L 223.522764 -7.2
L 222.295515 -7.2
L 221.068266 -7.2
L 219.841018 -7.2
L 218.613769 -7.2
L 217.38652 -7.2
L 216.159271 -7.2
L 214.932023 -7.2
L 213.704774 -7.2
L 212.477525 -7.2
L 211.250276 -7.2
L 210.023028 -7.2
L 208.795779 -7.2
L 207.56853 -7.2
L 206.341281 -7.2
L 205.114033 -7.199999
L 203.886784 -7.199992
L 202.659535 -7.19994
L 201.432286 -7.199574
L 200.205038 -7.197223
L 198.977789 -7.183762
L 197.75054 -7.11715
L 196.523291 -6.841754
L 195.296043 -5.910644
L 194.068794 -3.326911
L 192.841545 2.668749
L 191.614296 14.407863
L 190.387048 33.506392
L 189.159799 58.536198
L 187.93255 84.383414
L 186.705302 105.573903
L 185.478053 119.843867
L 184.250804 128.040472
L 183.023555 132.137903
L 181.796307 133.908261
L 180.569058 134.532549
L 179.341809 134.596233
L 178.11456 134.069107
L 176.887312 132.056215
L 175.660063 126.395122
L 174.432814 115.106002
L 173.205565 104.275954
L 171.978317 106.081925
L 170.751068 117.358852
L 169.523819 129.009918
L 168.29657 137.537883
L 167.069322 142.630488
L 165.842073 145.063227
L 164.614824 146.446832
L 163.387575 149.312191
L 162.160327 155.879806
L 160.933078 165.438029
L 159.705829 174.370203
L 158.47858 179.396164
L 157.251332 178.872802
L 156.024083 171.730397
L 154.796834 156.767477
L 153.569585 134.113547
L 152.342337 110.109524
L 151.115088 99.613979
L 149.887839 110.672788
L 148.66059 131.664599
L 147.433342 148.084527
L 146.206093 154.414677
L 144.978844 150.326523
L 143.751595 137.347459
L 142.524347 120.095044
L 141.297098 106.683859
L 140.069849 102.331775
L 138.842601 104.999712
L 137.615352 110.090151
L 136.388103 114.566238
L 135.160854 117.056881
L 133.933606 116.998679
L 132.706357 114.160197
L 131.479108 108.552422
L 130.251859 100.700671
L 129.024611 92.483744
L 127.797362 88.053232
L 126.570113 91.235741
L 125.342864 99.455814
L 124.115616 106.686946
L 122.888367 110.510256
L 121.661118 111.801572
L 120.433869 112.625972
L 119.206621 115.097876
L 117.979372 120.130778
L 116.752123 126.772563
L 115.524874 133.303617
L 114.297626 138.715861
L 113.070377 142.93753
L 111.843128 146.32495
L 110.615879 149.352874
L 109.388631 152.563898
L 108.161382 156.406011
L 106.934133 160.832189
L 105.706884 165.112618
L 104.479636 168.327463
L 103.252387 170.051236
L 102.025138 170.439008
L 100.797889 169.845995
L 99.570641 168.553281
L 98.343392 166.735597
L 97.116143 164.476435
L 95.888894 161.767599
L 94.661646 158.605043
L 93.434397 155.168674
L 92.207148 151.845599
L 90.979899 148.973937
L 89.752651 146.567032
L 88.525402 144.299754
L 87.298153 141.700607
L 86.070905 138.357688
L 84.843656 134.074216
L 83.616407 129.049918
L 82.389158 124.249546
L 81.16191 121.996992
L 79.934661 125.511277
L 78.707412 134.852962
L 77.480163 145.092726
L 76.252915 152.557991
L 75.025666 157.058216
L 73.798417 159.380312
L 72.571168 160.102533
L 71.34392 159.621652
L 70.116671 158.342034
L 68.889422 156.672002
L 67.662173 154.858934
L 66.434925 152.914478
L 65.207676 150.694463
L 63.980427 148.010667
L 62.753178 144.75831
L 61.52593 141.127363
L 60.298681 137.958557
L 59.071432 137.108799
L 57.844183 140.851682
L 56.616935 149.088847
L 55.389686 157.98763
L 54.162437 164.19709
L 52.935188 167.439778
L 51.70794 168.687821
L 50.480691 168.648335
L 49.253442 167.596879
L 48.026193 165.616991
L 46.798945 162.793488
L 45.571696 159.291463
L 44.344447 155.328681
L 43.117198 151.065343
L 41.88995 146.490237
L 40.662701 141.404773
L 39.435452 135.550127
L 38.208204 128.85635
L 36.980955 121.732678
L 35.753706 115.202594
L 34.526457 110.65345
L 33.299209 109.347301
L 32.07196 112.070102
L 30.844711 118.590502
L 29.617462 126.998335
L 28.390214 134.62193
L 27.162965 139.865753
L 25.935716 142.492117
L 24.708467 142.994916
L 23.481219 142.5043
L 22.25397 143.09089
L 21.026721 146.956122
L 19.799472 153.735602
L 18.572224 160.253279
L 17.344975 164.120693
L 16.117726 165.198774
L 14.890477 164.721449
L 13.663229 164.531804
L 12.43598 166.121644
L 11.208731 169.470297
L 9.981482 173.293411
L 8.754234 176.337894
L 7.526985 177.89006
L 6.299736 177.54154
L 5.072487 174.962724
L 3.845239 169.849822
L 2.61799 161.979085
L 1.390741 151.345978
L 0.163492 138.353217
L -1.063756 123.91492
L -2.291005 109.311519
L -3.518254 95.801296
L -4.745503 84.22023
L -5.972751 74.767322
L -7.2 66.947891
z
" clip-path="url(#p8f2e1a5540)" style="fill: #4b7fa2; fill-opacity: 0.75; stroke: #ffffff"/>
   </g>
   <g id="PolyCollection_4">
    <path d="M -7.2 1.865913
L -7.2 66.947891
L -5.972751 74.767322
L -4.745503 84.22023
L -3.518254 95.801296
L -2.291005 109.311519
L -1.063756 123.91492
L 0.163492 138.353217
L 1.390741 151.345978
L 2.61799 161.979085
L 3.845239 169.849822
L 5.072487 174.962724
L 6.299736 177.54154
L 7.526985 177.89006
L 8.754234 176.337894
L 9.981482 173.293411
L 11.208731 169.470297
L 12.43598 166.121644
L 13.663229 164.531804
L 14.890477 164.721449
L 16.117726 165.198774
L 17.344975 164.120693
L 18.572224 160.253279
L 19.799472 153.735602
L 21.026721 146.956122
L 22.25397 143.09089
L 23.481219 142.5043
L 24.708467 142.994916
L 25.935716 142.492117
L 27.162965 139.865753
L 28.390214 134.62193
L 29.617462 126.998335
L 30.844711 118.590502
L 32.07196 112.070102
L 33.299209 109.347301
L 34.526457 110.65345
L 35.753706 115.202594
L 36.980955 121.732678
L 38.208204 128.85635
L 39.435452 135.550127
L 40.662701 141.404773
L 41.88995 146.490237
L 43.117198 151.065343
L 44.344447 155.328681
L 45.571696 159.291463
L 46.798945 162.793488
L 48.026193 165.616991
L 49.253442 167.596879
L 50.480691 168.648335
L 51.70794 168.687821
L 52.935188 167.439778
L 54.162437 164.19709
L 55.389686 157.98763
L 56.616935 149.088847
L 57.844183 140.851682
L 59.071432 137.108799
L 60.298681 137.958557
L 61.52593 141.127363
L 62.753178 144.75831
L 63.980427 148.010667
L 65.207676 150.694463
L 66.434925 152.914478
L 67.662173 154.858934
L 68.889422 156.672002
L 70.116671 158.342034
L 71.34392 159.621652
L 72.571168 160.102533
L 73.798417 159.380312
L 75.025666 157.058216
L 76.252915 152.557991
L 77.480163 145.092726
L 78.707412 134.852962
L 79.934661 125.511277
L 81.16191 121.996992
L 82.389158 124.249546
L 83.616407 129.049918
L 84.843656 134.074216
L 86.070905 138.357688
L 87.298153 141.700607
L 88.525402 144.299754
L 89.752651 146.567032
L 90.979899 148.973937
L 92.207148 151.845599
L 93.434397 155.168674
L 94.661646 158.605043
L 95.888894 161.767599
L 97.116143 164.476435
L 98.343392 166.735597
L 99.570641 168.553281
L 100.797889 169.845995
L 102.025138 170.439008
L 103.252387 170.051236
L 104.479636 168.327463
L 105.706884 165.112618
L 106.934133 160.832189
L 108.161382 156.406011
L 109.388631 152.563898
L 110.615879 149.352874
L 111.843128 146.32495
L 113.070377 142.93753
L 114.297626 138.715861
L 115.524874 133.303617
L 116.752123 126.772563
L 117.979372 120.130778
L 119.206621 115.097876
L 120.433869 112.625972
L 121.661118 111.801572
L 122.888367 110.510256
L 124.115616 106.686946
L 125.342864 99.455814
L 126.570113 91.235741
L 127.797362 88.053232
L 129.024611 92.483744
L 130.251859 100.700671
L 131.479108 108.552422
L 132.706357 114.160197
L 133.933606 116.998679
L 135.160854 117.056881
L 136.388103 114.566238
L 137.615352 110.090151
L 138.842601 104.999712
L 140.069849 102.331775
L 141.297098 106.683859
L 142.524347 120.095044
L 143.751595 137.347459
L 144.978844 150.326523
L 146.206093 154.414677
L 147.433342 148.084527
L 148.66059 131.664599
L 149.887839 110.672788
L 151.115088 99.613979
L 152.342337 110.109524
L 153.569585 134.113547
L 154.796834 156.767477
L 156.024083 171.730397
L 157.251332 178.872802
L 158.47858 179.396164
L 159.705829 174.370203
L 160.933078 165.438029
L 162.160327 155.879806
L 163.387575 149.312191
L 164.614824 146.446832
L 165.842073 145.063227
L 167.069322 142.630488
L 168.29657 137.537883
L 169.523819 129.009918
L 170.751068 117.358852
L 171.978317 106.081925
L 173.205565 104.275954
L 174.432814 115.106002
L 175.660063 126.395122
L 176.887312 132.056215
L 178.11456 134.069107
L 179.341809 134.596233
L 180.569058 134.532549
L 181.796307 133.908261
L 183.023555 132.137903
L 184.250804 128.040472
L 185.478053 119.843867
L 186.705302 105.573903
L 187.93255 84.383414
L 189.159799 58.536198
L 190.387048 33.506392
L 191.614296 14.407863
L 192.841545 2.668749
L 194.068794 -3.326911
L 195.296043 -5.910644
L 196.523291 -6.841754
L 197.75054 -7.11715
L 198.977789 -7.183762
L 200.205038 -7.197223
L 201.432286 -7.199574
L 202.659535 -7.19994
L 203.886784 -7.199992
L 205.114033 -7.199999
L 206.341281 -7.2
L 207.56853 -7.2
L 208.795779 -7.2
L 210.023028 -7.2
L 211.250276 -7.2
L 212.477525 -7.2
L 213.704774 -7.2
L 214.932023 -7.2
L 216.159271 -7.2
L 217.38652 -7.2
L 218.613769 -7.2
L 219.841018 -7.2
L 221.068266 -7.2
L 222.295515 -7.2
L 223.522764 -7.2
L 224.750013 -7.2
L 225.977261 -7.2
L 227.20451 -7.2
L 228.431759 -7.2
L 229.659008 -7.2
L 230.886256 -7.2
L 232.113505 -7.2
L 233.340754 -7.2
L 234.568003 -7.2
L 235.795251 -7.2
L 237.0225 -7.2
L 237.0225 -7.2
L 237.0225 -7.2
L 235.795251 -7.2
L 234.568003 -7.2
L 233.340754 -7.2
L 232.113505 -7.2
L 230.886256 -7.2
L 229.659008 -7.2
L 228.431759 -7.2
L 227.20451 -7.2
L 225.977261 -7.2
L 224.750013 -7.2
L 223.522764 -7.2
L 222.295515 -7.2
L 221.068266 -7.2
L 219.841018 -7.2
L 218.613769 -7.2
L 217.38652 -7.2
L 216.159271 -7.2
L 214.932023 -7.2
L 213.704774 -7.2
L 212.477525 -7.2
L 211.250276 -7.2
L 210.023028 -7.2
L 208.795779 -7.2
L 207.56853 -7.2
L 206.341281 -7.2
L 205.114033 -7.2
L 203.886784 -7.2
L 202.659535 -7.2
L 201.432286 -7.2
L 200.205038 -7.2
L 198.977789 -7.2
L 197.75054 -7.2
L 196.523291 -7.2
L 195.296043 -7.2
L 194.068794 -7.2
L 192.841545 -7.2
L 191.614296 -7.2
L 190.387048 -7.2
L 189.159799 -7.2
L 187.93255 -7.2
L 186.705302 -7.2
L 185.478053 -7.2
L 184.250804 -7.2
L 183.023555 -7.2
L 181.796307 -7.2
L 180.569058 -7.2
L 179.341809 -7.2
L 178.11456 -7.2
L 176.887312 -7.2
L 175.660063 -7.2
L 174.432814 -7.199994
L 173.205565 -7.19991
L 171.978317 -7.199138
L 170.751068 -7.19426
L 169.523819 -7.169116
L 168.29657 -7.056443
L 167.069322 -6.611812
L 165.842073 -5.080514
L 164.614824 -0.606003
L 163.387575 9.93147
L 162.160327 28.648434
L 160.933078 52.564948
L 159.705829 74.603949
L 158.47858 89.432362
L 157.251332 95.297435
L 156.024083 92.031477
L 154.796834 79.65299
L 153.569585 59.121342
L 152.342337 35.706044
L 151.115088 21.348678
L 149.887839 25.250836
L 148.66059 42.219841
L 147.433342 60.616842
L 146.206093 72.488708
L 144.978844 73.860427
L 143.751595 63.278352
L 142.524347 43.543455
L 141.297098 23.522592
L 140.069849 11.822239
L 138.842601 9.209989
L 137.615352 11.6027
L 136.388103 15.272157
L 135.160854 18.046407
L 133.933606 18.855591
L 132.706357 17.343498
L 131.479108 13.713868
L 130.251859 8.741313
L 129.024611 4.085569
L 127.797362 2.879769
L 126.570113 8.406664
L 125.342864 19.457471
L 124.115616 30.861258
L 122.888367 39.029477
L 121.661118 43.238784
L 120.433869 44.573712
L 119.206621 44.949202
L 117.979372 45.849958
L 116.752123 47.444312
L 115.524874 49.180902
L 114.297626 50.78719
L 113.070377 52.263981
L 111.843128 53.472323
L 110.615879 54.207971
L 109.388631 54.601235
L 108.161382 55.21504
L 106.934133 56.544249
L 105.706884 58.416132
L 104.479636 60.162726
L 103.252387 61.341768
L 102.025138 61.965675
L 100.797889 62.181473
L 99.570641 62.054507
L 98.343392 61.572127
L 97.116143 60.630399
L 95.888894 59.078789
L 94.661646 57.00835
L 93.434397 55.014591
L 92.207148 53.920311
L 90.979899 54.072565
L 89.752651 54.979516
L 88.525402 55.604509
L 87.298153 54.890862
L 86.070905 52.118971
L 84.843656 47.083439
L 83.616407 40.254906
L 82.389158 33.077892
L 81.16191 28.352152
L 79.934661 29.552298
L 78.707412 37.1674
L 77.480163 47.121697
L 76.252915 55.917732
L 75.025666 62.595707
L 73.798417 67.022582
L 72.571168 69.240496
L 71.34392 69.692859
L 70.116671 69.351378
L 68.889422 69.230695
L 67.662173 69.624994
L 66.434925 70.028118
L 65.207676 69.653053
L 63.980427 67.81547
L 62.753178 64.106239
L 61.52593 58.620565
L 60.298681 52.422178
L 59.071432 48.137365
L 57.844183 49.443418
L 56.616935 57.466384
L 55.389686 68.1694
L 54.162437 77.136053
L 52.935188 83.365681
L 51.70794 87.394525
L 50.480691 89.525396
L 49.253442 89.786651
L 48.026193 88.391381
L 46.798945 85.983904
L 45.571696 83.415528
L 44.344447 81.147385
L 43.117198 78.932029
L 41.88995 76.112127
L 40.662701 72.048393
L 39.435452 66.388816
L 38.208204 59.33128
L 36.980955 51.887937
L 35.753706 45.81391
L 34.526457 42.906242
L 33.299209 44.211907
L 32.07196 49.98108
L 30.844711 59.666164
L 29.617462 71.263568
L 28.390214 81.840979
L 27.162965 89.346648
L 25.935716 93.154095
L 24.708467 93.603181
L 23.481219 92.069631
L 22.25397 91.541764
L 21.026721 95.60833
L 19.799472 104.276981
L 18.572224 112.908839
L 17.344975 117.447454
L 16.117726 117.102302
L 14.890477 113.408342
L 13.663229 109.375488
L 12.43598 108.183989
L 11.208731 110.881007
L 9.981482 115.940014
L 8.754234 121.178884
L 7.526985 124.990207
L 6.299736 126.305099
L 5.072487 124.373273
L 3.845239 118.704974
L 2.61799 109.115653
L 1.390741 95.858159
L 0.163492 79.78653
L -1.063756 62.364014
L -2.291005 45.341722
L -3.518254 30.220718
L -4.745503 17.867097
L -5.972751 8.492423
L -7.2 1.865913
z
" clip-path="url(#p8f2e1a5540)" style="fill: #6aaabc; fill-opacity: 0.75; stroke: #ffffff"/>
   </g>
   <g id="PolyCollection_5">
    <path d="M -7.2 -7.2
L -7.2 1.865913
L -5.972751 8.492423
L -4.745503 17.867097
L -3.518254 30.220718
L -2.291005 45.341722
L -1.063756 62.364014
L 0.163492 79.78653
L 1.390741 95.858159
L 2.61799 109.115653
L 3.845239 118.704974
L 5.072487 124.373273
L 6.299736 126.305099
L 7.526985 124.990207
L 8.754234 121.178884
L 9.981482 115.940014
L 11.208731 110.881007
L 12.43598 108.183989
L 13.663229 109.375488
L 14.890477 113.408342
L 16.117726 117.102302
L 17.344975 117.447454
L 18.572224 112.908839
L 19.799472 104.276981
L 21.026721 95.60833
L 22.25397 91.541764
L 23.481219 92.069631
L 24.708467 93.603181
L 25.935716 93.154095
L 27.162965 89.346648
L 28.390214 81.840979
L 29.617462 71.263568
L 30.844711 59.666164
L 32.07196 49.98108
L 33.299209 44.211907
L 34.526457 42.906242
L 35.753706 45.81391
L 36.980955 51.887937
L 38.208204 59.33128
L 39.435452 66.388816
L 40.662701 72.048393
L 41.88995 76.112127
L 43.117198 78.932029
L 44.344447 81.147385
L 45.571696 83.415528
L 46.798945 85.983904
L 48.026193 88.391381
L 49.253442 89.786651
L 50.480691 89.525396
L 51.70794 87.394525
L 52.935188 83.365681
L 54.162437 77.136053
L 55.389686 68.1694
L 56.616935 57.466384
L 57.844183 49.443418
L 59.071432 48.137365
L 60.298681 52.422178
L 61.52593 58.620565
L 62.753178 64.106239
L 63.980427 67.81547
L 65.207676 69.653053
L 66.434925 70.028118
L 67.662173 69.624994
L 68.889422 69.230695
L 70.116671 69.351378
L 71.34392 69.692859
L 72.571168 69.240496
L 73.798417 67.022582
L 75.025666 62.595707
L 76.252915 55.917732
L 77.480163 47.121697
L 78.707412 37.1674
L 79.934661 29.552298
L 81.16191 28.352152
L 82.389158 33.077892
L 83.616407 40.254906
L 84.843656 47.083439
L 86.070905 52.118971
L 87.298153 54.890862
L 88.525402 55.604509
L 89.752651 54.979516
L 90.979899 54.072565
L 92.207148 53.920311
L 93.434397 55.014591
L 94.661646 57.00835
L 95.888894 59.078789
L 97.116143 60.630399
L 98.343392 61.572127
L 99.570641 62.054507
L 100.797889 62.181473
L 102.025138 61.965675
L 103.252387 61.341768
L 104.479636 60.162726
L 105.706884 58.416132
L 106.934133 56.544249
L 108.161382 55.21504
L 109.388631 54.601235
L 110.615879 54.207971
L 111.843128 53.472323
L 113.070377 52.263981
L 114.297626 50.78719
L 115.524874 49.180902
L 116.752123 47.444312
L 117.979372 45.849958
L 119.206621 44.949202
L 120.433869 44.573712
L 121.661118 43.238784
L 122.888367 39.029477
L 124.115616 30.861258
L 125.342864 19.457471
L 126.570113 8.406664
L 127.797362 2.879769
L 129.024611 4.085569
L 130.251859 8.741313
L 131.479108 13.713868
L 132.706357 17.343498
L 133.933606 18.855591
L 135.160854 18.046407
L 136.388103 15.272157
L 137.615352 11.6027
L 138.842601 9.209989
L 140.069849 11.822239
L 141.297098 23.522592
L 142.524347 43.543455
L 143.751595 63.278352
L 144.978844 73.860427
L 146.206093 72.488708
L 147.433342 60.616842
L 148.66059 42.219841
L 149.887839 25.250836
L 151.115088 21.348678
L 152.342337 35.706044
L 153.569585 59.121342
L 154.796834 79.65299
L 156.024083 92.031477
L 157.251332 95.297435
L 158.47858 89.432362
L 159.705829 74.603949
L 160.933078 52.564948
L 162.160327 28.648434
L 163.387575 9.93147
L 164.614824 -0.606003
L 165.842073 -5.080514
L 167.069322 -6.611812
L 168.29657 -7.056443
L 169.523819 -7.169116
L 170.751068 -7.19426
L 171.978317 -7.199138
L 173.205565 -7.19991
L 174.432814 -7.199994
L 175.660063 -7.2
L 176.887312 -7.2
L 178.11456 -7.2
L 179.341809 -7.2
L 180.569058 -7.2
L 181.796307 -7.2
L 183.023555 -7.2
L 184.250804 -7.2
L 185.478053 -7.2
L 186.705302 -7.2
L 187.93255 -7.2
L 189.159799 -7.2
L 190.387048 -7.2
L 191.614296 -7.2
L 192.841545 -7.2
L 194.068794 -7.2
L 195.296043 -7.2
L 196.523291 -7.2
L 197.75054 -7.2
L 198.977789 -7.2
L 200.205038 -7.2
L 201.432286 -7.2
L 202.659535 -7.2
L 203.886784 -7.2
L 205.114033 -7.2
L 206.341281 -7.2
L 207.56853 -7.2
L 208.795779 -7.2
L 210.023028 -7.2
L 211.250276 -7.2
L 212.477525 -7.2
L 213.704774 -7.2
L 214.932023 -7.2
L 216.159271 -7.2
L 217.38652 -7.2
L 218.613769 -7.2
L 219.841018 -7.2
L 221.068266 -7.2
L 222.295515 -7.2
L 223.522764 -7.2
L 224.750013 -7.2
L 225.977261 -7.2
L 227.20451 -7.2
L 228.431759 -7.2
L 229.659008 -7.2
L 230.886256 -7.2
L 232.113505 -7.2
L 233.340754 -7.2
L 234.568003 -7.2
L 235.795251 -7.2
L 237.0225 -7.2
L 237.0225 -7.2
L 237.0225 -7.2
L 235.795251 -7.2
L 234.568003 -7.2
L 233.340754 -7.2
L 232.113505 -7.2
L 230.886256 -7.2
L 229.659008 -7.2
L 228.431759 -7.2
L 227.20451 -7.2
L 225.977261 -7.2
L 224.750013 -7.2
L 223.522764 -7.2
L 222.295515 -7.2
L 221.068266 -7.2
L 219.841018 -7.2
L 218.613769 -7.2
L 217.38652 -7.2
L 216.159271 -7.2
L 214.932023 -7.2
L 213.704774 -7.2
L 212.477525 -7.2
L 211.250276 -7.2
L 210.023028 -7.2
L 208.795779 -7.2
L 207.56853 -7.2
L 206.341281 -7.2
L 205.114033 -7.2
L 203.886784 -7.2
L 202.659535 -7.2
L 201.432286 -7.2
L 200.205038 -7.2
L 198.977789 -7.2
L 197.75054 -7.2
L 196.523291 -7.2
L 195.296043 -7.2
L 194.068794 -7.2
L 192.841545 -7.2
L 191.614296 -7.2
L 190.387048 -7.2
L 189.159799 -7.2
L 187.93255 -7.2
L 186.705302 -7.2
L 185.478053 -7.2
L 184.250804 -7.2
L 183.023555 -7.2
L 181.796307 -7.2
L 180.569058 -7.2
L 179.341809 -7.2
L 178.11456 -7.2
L 176.887312 -7.2
L 175.660063 -7.2
L 174.432814 -7.2
L 173.205565 -7.2
L 171.978317 -7.2
L 170.751068 -7.2
L 169.523819 -7.2
L 168.29657 -7.2
L 167.069322 -7.2
L 165.842073 -7.2
L 164.614824 -7.2
L 163.387575 -7.2
L 162.160327 -7.2
L 160.933078 -7.2
L 159.705829 -7.2
L 158.47858 -7.2
L 157.251332 -7.2
L 156.024083 -7.2
L 154.796834 -7.2
L 153.569585 -7.2
L 152.342337 -7.2
L 151.115088 -7.2
L 149.887839 -7.2
L 148.66059 -7.2
L 147.433342 -7.2
L 146.206093 -7.2
L 144.978844 -7.2
L 143.751595 -7.2
L 142.524347 -7.2
L 141.297098 -7.2
L 140.069849 -7.2
L 138.842601 -7.2
L 137.615352 -7.2
L 136.388103 -7.2
L 135.160854 -7.2
L 133.933606 -7.2
L 132.706357 -7.2
L 131.479108 -7.2
L 130.251859 -7.2
L 129.024611 -7.2
L 127.797362 -7.2
L 126.570113 -7.2
L 125.342864 -7.2
L 124.115616 -7.2
L 122.888367 -7.2
L 121.661118 -7.2
L 120.433869 -7.2
L 119.206621 -7.2
L 117.979372 -7.2
L 116.752123 -7.2
L 115.524874 -7.2
L 114.297626 -7.2
L 113.070377 -7.2
L 111.843128 -7.2
L 110.615879 -7.2
L 109.388631 -7.2
L 108.161382 -7.2
L 106.934133 -7.2
L 105.706884 -7.2
L 104.479636 -7.2
L 103.252387 -7.2
L 102.025138 -7.2
L 100.797889 -7.2
L 99.570641 -7.2
L 98.343392 -7.2
L 97.116143 -7.2
L 95.888894 -7.2
L 94.661646 -7.2
L 93.434397 -7.2
L 92.207148 -7.2
L 90.979899 -7.2
L 89.752651 -7.2
L 88.525402 -7.2
L 87.298153 -7.2
L 86.070905 -7.2
L 84.843656 -7.2
L 83.616407 -7.2
L 82.389158 -7.2
L 81.16191 -7.2
L 79.934661 -7.2
L 78.707412 -7.2
L 77.480163 -7.2
L 76.252915 -7.2
L 75.025666 -7.2
L 73.798417 -7.2
L 72.571168 -7.2
L 71.34392 -7.2
L 70.116671 -7.2
L 68.889422 -7.2
L 67.662173 -7.2
L 66.434925 -7.2
L 65.207676 -7.2
L 63.980427 -7.2
L 62.753178 -7.2
L 61.52593 -7.2
L 60.298681 -7.2
L 59.071432 -7.2
L 57.844183 -7.2
L 56.616935 -7.2
L 55.389686 -7.2
L 54.162437 -7.2
L 52.935188 -7.2
L 51.70794 -7.2
L 50.480691 -7.2
L 49.253442 -7.2
L 48.026193 -7.2
L 46.798945 -7.2
L 45.571696 -7.2
L 44.344447 -7.2
L 43.117198 -7.2
L 41.88995 -7.2
L 40.662701 -7.2
L 39.435452 -7.2
L 38.208204 -7.2
L 36.980955 -7.2
L 35.753706 -7.2
L 34.526457 -7.2
L 33.299209 -7.2
L 32.07196 -7.2
L 30.844711 -7.2
L 29.617462 -7.2
L 28.390214 -7.2
L 27.162965 -7.2
L 25.935716 -7.2
L 24.708467 -7.2
L 23.481219 -7.2
L 22.25397 -7.2
L 21.026721 -7.2
L 19.799472 -7.2
L 18.572224 -7.2
L 17.344975 -7.2
L 16.117726 -7.2
L 14.890477 -7.2
L 13.663229 -7.2
L 12.43598 -7.2
L 11.208731 -7.2
L 9.981482 -7.2
L 8.754234 -7.2
L 7.526985 -7.2
L 6.299736 -7.2
L 5.072487 -7.2
L 3.845239 -7.2
L 2.61799 -7.2
L 1.390741 -7.2
L 0.163492 -7.2
L -1.063756 -7.2
L -2.291005 -7.2
L -3.518254 -7.2
L -4.745503 -7.2
L -5.972751 -7.2
L -7.2 -7.2
z
" clip-path="url(#p8f2e1a5540)" style="fill: #98d1d2; fill-opacity: 0.75; stroke: #ffffff"/>
   </g>
   <g id="patch_3">
    <path style="fill: none; stroke: #cccccc; stroke-width: 1.25; stroke-linejoin: miter; stroke-linecap: square"/>
   </g>
   <g id="patch_4">
    <path style="fill: none; stroke: #cccccc; stroke-width: 1.25; stroke-linejoin: miter; stroke-linecap: square"/>
   </g>
  </g>
 </g>
 <defs>
  <clipPath id="p8f2e1a5540">
   <rect x="-7.2" y="-7.2" width="244.2225" height="245.16"/>
  </clipPath>
 </defs>
</svg>
